<svg xmlns="http://www.w3.org/2000/svg" viewBox="0 0 24 24">
    <title>domain</title>
    <defs>
        <linearGradient x1="50%" y1="-93.7970307%" x2="50%" y2="197.048664%" id="linearGradient-1">
            <stop stop-color="#1E6095" offset="0%"/>
            <stop stop-color="#33A4FD" offset="100%"/>
        </linearGradient>
    </defs>
    <path d="M18,15H16V17H18M18,11H16V13H18M20,19H12V17H14V15H12V13H14V11H12V9H20M10,7H8V5H10M10,11H8V9H10M10,15H8V13H10M10,19H8V17H10M6,7H4V5H6M6,11H4V9H6M6,15H4V13H6M6,19H4V17H6M12,7V3H2V21H22V7H12Z" fill="url(#linearGradient-1)" /></svg>