<svg xmlns="http://www.w3.org/2000/svg" viewBox="0 0 24 24">
    <title>swap-horizontal-circle-outline</title>
    <defs>
        <linearGradient x1="50%" y1="-93.7970307%" x2="50%" y2="197.048664%" id="linearGradient-1">
            <stop stop-color="#1E6095" offset="0%"/>
            <stop stop-color="#33A4FD" offset="100%"/>
        </linearGradient>
    </defs>
    <path d="M12 2C6.5 2 2 6.5 2 12S6.5 22 12 22 22 17.5 22 12 17.5 2 12 2M12 20C7.59 20 4 16.41 4 12S7.59 4 12 4 20 7.59 20 12 16.41 20 12 20M15 6.5V9H11V11H15V13.5L18.5 10L15 6.5M9 10.5L5.5 14L9 17.5V15H13V13H9V10.5Z" fill="url(#linearGradient-1)" /></svg>