<svg xmlns="http://www.w3.org/2000/svg" viewBox="0 0 24 24">
    <title>account-multiple-outline</title>
    <defs>
        <linearGradient x1="50%" y1="-93.7970307%" x2="50%" y2="197.048664%" id="linearGradient-1">
            <stop stop-color="#1E6095" offset="0%"/>
            <stop stop-color="#33A4FD" offset="100%"/>
        </linearGradient>
    </defs>
    <path d="M13.07 10.41A5 5 0 0 0 13.07 4.59A3.39 3.39 0 0 1 15 4A3.5 3.5 0 0 1 15 11A3.39 3.39 0 0 1 13.07 10.41M5.5 7.5A3.5 3.5 0 1 1 9 11A3.5 3.5 0 0 1 5.5 7.5M7.5 7.5A1.5 1.5 0 1 0 9 6A1.5 1.5 0 0 0 7.5 7.5M16 17V19H2V17S2 13 9 13 16 17 16 17M14 17C13.86 16.22 12.67 15 9 15S4.07 16.31 4 17M15.95 13A5.32 5.32 0 0 1 18 17V19H22V17S22 13.37 15.94 13Z" fill="url(#linearGradient-1)" /></svg>