<svg xmlns="http://www.w3.org/2000/svg" viewBox="0 0 24 24">
    <title>application-brackets-outline</title>
    <defs>
        <linearGradient x1="50%" y1="-93.7970307%" x2="50%" y2="197.048664%" id="linearGradient-1">
            <stop stop-color="#1E6095" offset="0%"/>
            <stop stop-color="#33A4FD" offset="100%"/>
        </linearGradient>
    </defs>
    <path d="M9.5,8.5L11,10L8,13L11,16L9.5,17.5L5,13L9.5,8.5M14.5,17.5L13,16L16,13L13,10L14.5,8.5L19,13L14.5,17.5M21,2H3A2,2 0 0,0 1,4V20A2,2 0 0,0 3,22H21A2,2 0 0,0 23,20V4A2,2 0 0,0 21,2M21,20H3V6H21V20Z" fill="url(#linearGradient-1)" /></svg>